<svg xmlns="http://www.w3.org/2000/svg" xmlns:xlink="http://www.w3.org/1999/xlink" width="2000" zoomAndPan="magnify" viewBox="0 0 1500 1499.999933" height="2000" preserveAspectRatio="xMidYMid meet" version="1.0"><defs><g/><clipPath id="be1d8b984c"><path d="M 54.035156 52.59375 L 1445.964844 52.59375 L 1445.964844 1444.527344 L 54.035156 1444.527344 Z M 54.035156 52.59375 " clip-rule="nonzero"/></clipPath><clipPath id="5a81de5732"><path d="M 750 52.59375 C 365.628906 52.59375 54.035156 364.191406 54.035156 748.5625 C 54.035156 1132.933594 365.628906 1444.527344 750 1444.527344 C 1134.371094 1444.527344 1445.964844 1132.933594 1445.964844 748.5625 C 1445.964844 364.191406 1134.371094 52.59375 750 52.59375 Z M 750 52.59375 " clip-rule="nonzero"/></clipPath></defs><rect x="-150" width="1800" fill="#ffffff" y="-149.999993" height="1799.99992" fill-opacity="1"/><rect x="-150" width="1800" fill="#ffffff" y="-149.999993" height="1799.99992" fill-opacity="1"/><g clip-path="url(#be1d8b984c)"><g clip-path="url(#5a81de5732)"><path fill="#ff6105" d="M 54.035156 52.59375 L 1445.964844 52.59375 L 1445.964844 1444.527344 L 54.035156 1444.527344 Z M 54.035156 52.59375 " fill-opacity="1" fill-rule="nonzero"/></g></g><g fill="#ffffff" fill-opacity="1"><g transform="translate(546.916105, 1237.238712)"><g><path d="M 237.28125 -534.140625 C 223.03125 -499.410156 210.5625 -459.671875 199.875 -414.921875 C 189.195312 -370.171875 181.878906 -324.707031 177.921875 -278.53125 C 173.972656 -232.363281 175.082031 -189 181.25 -148.4375 C 185.007812 -123.78125 191.171875 -100.707031 199.734375 -79.21875 C 208.296875 -57.738281 219.410156 -39.5 233.078125 -24.5 C 214.953125 -15.226562 198.335938 -9.441406 183.234375 -7.140625 C 153.804688 -2.660156 126.394531 -7.640625 101 -22.078125 C 75.613281 -36.515625 54.347656 -57.28125 37.203125 -84.375 C 20.054688 -111.476562 9.0625 -140.941406 4.21875 -172.765625 C -1.226562 -208.546875 -1.289062 -246.367188 4.03125 -286.234375 C 9.351562 -326.109375 16.847656 -365.09375 26.515625 -403.1875 C 36.179688 -441.28125 44.800781 -475.550781 52.375 -506 C 35.125 -512.320312 21.484375 -523.0625 11.453125 -538.21875 C 1.421875 -553.375 -4.863281 -569.304688 -7.40625 -586.015625 C -10.550781 -606.691406 -8.328125 -624.113281 -0.734375 -638.28125 C 15.972656 -640.820312 34.054688 -644.992188 53.515625 -650.796875 C 72.972656 -656.609375 86.492188 -661.320312 94.078125 -664.9375 C 114.410156 -718.46875 131.59375 -771.328125 145.625 -823.515625 C 159.65625 -875.703125 170.316406 -925.945312 177.609375 -974.25 C 197.617188 -976.488281 219.515625 -974.332031 243.296875 -967.78125 C 267.078125 -961.226562 288.019531 -950.582031 306.125 -935.84375 C 324.238281 -921.101562 334.992188 -902.597656 338.390625 -880.328125 C 340.929688 -863.628906 338.789062 -845.601562 331.96875 -826.25 C 325.144531 -806.894531 317.816406 -786.859375 309.984375 -766.140625 C 302.160156 -745.421875 297.710938 -725.21875 296.640625 -705.53125 C 299.816406 -706.007812 302.765625 -706.660156 305.484375 -707.484375 C 308.210938 -708.304688 311.164062 -708.957031 314.34375 -709.4375 C 342.988281 -713.800781 365.285156 -711.703125 381.234375 -703.140625 C 397.179688 -694.578125 408.75 -682.707031 415.9375 -667.53125 C 423.132812 -652.351562 427.878906 -637.210938 430.171875 -622.109375 C 431.742188 -611.765625 432.765625 -602.351562 433.234375 -593.875 C 433.710938 -585.40625 433.46875 -579.0625 432.5 -574.84375 C 421.90625 -574.851562 411.632812 -574.097656 401.6875 -572.578125 C 391.75 -571.066406 381.613281 -569.523438 371.28125 -567.953125 C 349.019531 -564.566406 326.90625 -560.1875 304.9375 -554.8125 C 282.96875 -549.4375 260.414062 -542.546875 237.28125 -534.140625 Z M 237.28125 -534.140625 "/></g></g></g><g fill="#ffffff" fill-opacity="1"><g transform="translate(867.8455, 1188.388008)"><g/></g></g></svg>